<?xml version="1.0" standalone="no"?>
<!DOCTYPE svg PUBLIC "-//W3C//DTD SVG 20010904//EN"
 "http://www.w3.org/TR/2001/REC-SVG-20010904/DTD/svg10.dtd">
<svg version="1.0" xmlns="http://www.w3.org/2000/svg"
 width="320.000000pt" height="320.000000pt" viewBox="0 0 320.000000 320.000000"
 preserveAspectRatio="xMidYMid meet">
<metadata>
Created by potrace 1.14, written by Peter Selinger 2001-2017
</metadata>
<g transform="translate(0.000000,320.000000) scale(0.100000,-0.100000)"
fill="#000000" stroke="none">
<path d="M67 3193 c-4 -3 -7 -17 -7 -30 0 -19 -5 -23 -30 -23 l-30 0 0 -1533
0 -1533 33 -9 c25 -8 33 -16 35 -37 l3 -28 1530 0 1529 0 0 23 c0 29 18 47 47
47 l23 0 0 1535 0 1535 -30 0 c-29 0 -36 10 -31 48 2 9 -311 12 -1532 12 -843
0 -1537 -3 -1540 -7z m3100 -735 c-3 -8 -6 -5 -6 6 -1 11 2 17 5 13 3 -3 4
-12 1 -19z m-1717 -59 c111 -13 253 -70 390 -156 125 -78 182 -122 312 -237
54 -47 111 -92 127 -101 36 -18 87 -19 180 -3 67 11 71 11 183 -25 138 -44
153 -57 139 -118 -22 -94 -17 -111 57 -196 64 -74 67 -79 67 -129 0 -42 -6
-60 -31 -95 -17 -24 -48 -75 -69 -114 -41 -76 -183 -225 -310 -327 -91 -72
-118 -85 -205 -99 -39 -6 -122 -28 -183 -50 -101 -35 -122 -39 -212 -39 -55 0
-166 -5 -247 -12 -113 -9 -169 -9 -244 1 -123 15 -349 73 -417 108 -138 69
-302 225 -359 340 -30 61 -30 64 -24 170 12 199 13 202 66 253 85 82 78 167
-21 277 -51 56 -58 70 -64 117 -13 101 8 150 109 254 99 103 206 162 347 192
50 10 281 4 409 -11z m-932 -623 c20 -40 25 -127 10 -155 -26 -49 -112 -52
-167 -5 -57 48 -50 139 13 171 73 38 123 34 144 -11z"/>
<path d="M985 2150 c-21 -22 -44 -40 -50 -40 -15 0 -36 -50 -22 -51 23 -3 42
3 49 14 4 7 8 8 8 4 0 -13 53 32 67 56 16 29 16 57 0 57 -7 0 -31 -18 -52 -40z"/>
<path d="M2379 1689 c-39 -39 -14 -73 87 -118 50 -22 96 -110 110 -210 2 -19
6 -36 8 -38 1 -2 18 7 37 20 61 41 51 128 -23 191 -21 18 -49 55 -62 82 -13
27 -34 59 -45 72 -28 29 -83 30 -112 1z"/>
<path d="M813 1335 c-49 -21 -57 -80 -18 -138 29 -41 94 -80 114 -67 29 17
-18 200 -54 214 -6 2 -25 -2 -42 -9z"/>
<path d="M2435 1193 c-27 -28 -45 -56 -45 -70 0 -13 3 -23 8 -23 4 0 17 -3 28
-6 41 -11 114 89 93 128 -15 29 -36 21 -84 -29z"/>
<path d="M1603 1178 c-15 -26 -13 -55 7 -73 18 -16 20 -16 26 -1 8 21 -4 86
-16 86 -5 0 -12 -6 -17 -12z"/>
<path d="M1715 940 c-3 -6 1 -7 9 -4 18 7 21 14 7 14 -6 0 -13 -4 -16 -10z"/>
</g>
</svg>
